<svg width="134" height="44" viewBox="0 0 134 44" fill="none" xmlns="http://www.w3.org/2000/svg">
<path d="M30.2197 15.4961C30.2197 17.5306 30.0081 19.3535 29.585 20.9648C29.1781 22.5599 28.6084 23.9759 27.876 25.2129C27.1598 26.4336 26.3135 27.4753 25.3369 28.3379C24.3766 29.1842 23.335 29.8841 22.2119 30.4375C21.1051 30.9746 19.9495 31.3734 18.7451 31.6338C17.557 31.8779 16.3851 32 15.2295 32H0.605469V29.9736C1.71224 29.7458 2.53418 29.5016 3.07129 29.2412C3.62467 28.9645 3.90137 28.7122 3.90137 28.4844V3.99707L0.605469 4.46094L0.263672 1.9707C1.09375 1.77539 2.08659 1.58822 3.24219 1.40918C4.39779 1.23014 5.60221 1.07552 6.85547 0.945312C8.125 0.798828 9.39453 0.693034 10.6641 0.62793C11.9499 0.546549 13.138 0.505859 14.2285 0.505859C16.8001 0.505859 19.0788 0.847656 21.0645 1.53125C23.0501 2.19857 24.7184 3.17513 26.0693 4.46094C27.4365 5.74674 28.4701 7.31738 29.1699 9.17285C29.8698 11.0283 30.2197 13.1361 30.2197 15.4961ZM12.3975 3.28906C12.137 3.28906 11.8604 3.2972 11.5674 3.31348C11.2907 3.31348 11.014 3.32161 10.7373 3.33789V27.3613C10.7373 27.638 10.7536 27.8903 10.7861 28.1182C10.8187 28.346 10.9408 28.5413 11.1523 28.7041C11.3802 28.8669 11.7301 28.9971 12.2021 29.0947C12.6742 29.1761 13.3415 29.2168 14.2041 29.2168C15.083 29.2168 16.027 28.9808 17.0361 28.5088C18.0615 28.0368 19.0055 27.2881 19.8682 26.2627C20.7308 25.2373 21.4469 23.9189 22.0166 22.3076C22.6025 20.6963 22.8955 18.7432 22.8955 16.4482C22.8955 12.1025 22.0085 8.82292 20.2344 6.60938C18.4603 4.39583 15.848 3.28906 12.3975 3.28906Z" fill="black"/>
<path d="M57.5635 11.3213C57.0752 11.4352 56.6764 11.541 56.3672 11.6387C56.0579 11.7363 55.8057 11.8503 55.6104 11.9805C55.4313 12.0944 55.2848 12.2327 55.1709 12.3955C55.0732 12.542 54.9756 12.7373 54.8779 12.9814L46.7236 33.7578C46.0238 35.5482 45.2669 37.0863 44.4531 38.3721C43.6556 39.6579 42.793 40.7158 41.8652 41.5459C40.9538 42.376 39.9935 42.9863 38.9844 43.377C37.9753 43.7676 36.9092 43.9629 35.7861 43.9629C35.1676 43.9629 34.541 43.8978 33.9062 43.7676C33.2878 43.6374 32.7262 43.4827 32.2217 43.3037C31.7334 43.1247 31.3346 42.9294 31.0254 42.7178C30.7161 42.5062 30.5615 42.3271 30.5615 42.1807C30.5615 42.0179 30.7161 41.7087 31.0254 41.2529C31.3184 40.7972 31.6764 40.3089 32.0996 39.7881C32.5065 39.2835 32.9215 38.8034 33.3447 38.3477C33.7842 37.8919 34.1341 37.5827 34.3945 37.4199C35.2246 37.9896 36.0547 38.3395 36.8848 38.4697C37.7148 38.6162 38.431 38.5755 39.0332 38.3477C39.3262 38.25 39.6273 38.1117 39.9365 37.9326C40.262 37.7536 40.5794 37.5094 40.8887 37.2002C41.1979 36.891 41.499 36.4922 41.792 36.0039C42.1012 35.5319 42.4023 34.946 42.6953 34.2461L43.4033 32.5615L35.1514 12.9814C34.9723 12.542 34.6794 12.2002 34.2725 11.9561C33.8656 11.7119 33.2552 11.5003 32.4414 11.3213V9.29492H44.0625V11.3213C43.4277 11.4027 42.9476 11.4922 42.6221 11.5898C42.2965 11.6712 42.0687 11.777 41.9385 11.9072C41.8245 12.0212 41.7839 12.1676 41.8164 12.3467C41.849 12.5094 41.9222 12.721 42.0361 12.9814L46.748 24.1387L51.2402 12.9814C51.3379 12.7373 51.4111 12.5339 51.46 12.3711C51.5088 12.1921 51.4925 12.0456 51.4111 11.9316C51.3298 11.8014 51.1507 11.6956 50.874 11.6143C50.5973 11.5166 50.1904 11.4189 49.6533 11.3213V9.29492H57.5635V11.3213Z" fill="black"/>
<path d="M70.4297 11.6143C69.6973 11.6143 69.0788 11.7607 68.5742 12.0537C68.0697 12.3304 67.6465 12.7373 67.3047 13.2744C66.9792 13.8115 66.7269 14.4626 66.5479 15.2275C66.3688 15.9925 66.2467 16.8633 66.1816 17.8398H73.5547C73.929 17.8398 74.1732 17.7829 74.2871 17.6689C74.4173 17.5387 74.4824 17.3027 74.4824 16.9609C74.4824 16.4564 74.4092 15.8949 74.2627 15.2764C74.1325 14.6579 73.9046 14.0801 73.5791 13.543C73.2699 12.9896 72.8548 12.5339 72.334 12.1758C71.8132 11.8014 71.1784 11.6143 70.4297 11.6143ZM80.9277 18.6455C80.7812 18.8083 80.5534 18.9954 80.2441 19.207C79.9512 19.4023 79.6257 19.5977 79.2676 19.793C78.9095 19.9883 78.5514 20.1755 78.1934 20.3545C77.8353 20.5335 77.526 20.6719 77.2656 20.7695H66.1328C66.1816 21.8926 66.3363 22.9261 66.5967 23.8701C66.8734 24.7979 67.2477 25.5954 67.7197 26.2627C68.208 26.9137 68.8021 27.4264 69.502 27.8008C70.2018 28.1589 70.9993 28.3379 71.8945 28.3379C72.3991 28.3379 72.8955 28.3135 73.3838 28.2646C73.8721 28.1995 74.3929 28.0693 74.9463 27.874C75.516 27.6787 76.1507 27.3939 76.8506 27.0195C77.5667 26.6452 78.4131 26.1406 79.3896 25.5059C79.4873 25.5547 79.6094 25.6686 79.7559 25.8477C79.9023 26.0104 80.0407 26.1895 80.1709 26.3848C80.3174 26.5638 80.4476 26.7347 80.5615 26.8975C80.6755 27.0602 80.7487 27.1742 80.7812 27.2393C79.6257 28.3623 78.5921 29.2819 77.6807 29.998C76.7692 30.7142 75.8903 31.2757 75.0439 31.6826C74.1976 32.0895 73.3431 32.3662 72.4805 32.5127C71.6341 32.6592 70.6982 32.7324 69.6729 32.7324C68.2406 32.7324 66.8896 32.4557 65.6201 31.9023C64.3669 31.3327 63.2682 30.5433 62.3242 29.5342C61.3965 28.5088 60.6559 27.2881 60.1025 25.8721C59.5654 24.4561 59.2969 22.8854 59.2969 21.1602C59.2969 18.9466 59.6956 17.0098 60.4932 15.3496C61.307 13.6732 62.5439 12.2165 64.2041 10.9795C65.1156 10.2959 66.1898 9.72624 67.4268 9.27051C68.68 8.7985 69.9902 8.5625 71.3574 8.5625C72.9525 8.5625 74.3441 8.82292 75.5322 9.34375C76.7367 9.86458 77.7376 10.5807 78.5352 11.4922C79.3327 12.4036 79.9268 13.4779 80.3174 14.7148C80.7243 15.9355 80.9277 17.2458 80.9277 18.6455Z" fill="black"/>
<path d="M98.5059 17.3516C98.5059 16.554 98.4082 15.7972 98.2129 15.0811C98.0176 14.3649 97.7327 13.7464 97.3584 13.2256C96.984 12.6885 96.512 12.2653 95.9424 11.9561C95.389 11.6468 94.7461 11.4922 94.0137 11.4922C93.6068 11.4922 93.208 11.5817 92.8174 11.7607C92.4268 11.9398 92.0687 12.2165 91.7432 12.5908C91.4339 12.9489 91.1816 13.4046 90.9863 13.958C90.791 14.5114 90.6934 15.1624 90.6934 15.9111C90.6934 16.7249 90.7747 17.4899 90.9375 18.2061C91.1165 18.9059 91.3851 19.5163 91.7432 20.0371C92.1175 20.5579 92.5895 20.973 93.1592 21.2822C93.7288 21.5915 94.4043 21.7461 95.1855 21.7461C95.6576 21.7461 96.097 21.6566 96.5039 21.4775C96.9108 21.2985 97.2607 21.0299 97.5537 20.6719C97.8467 20.3138 98.0745 19.8581 98.2373 19.3047C98.4163 18.7513 98.5059 18.1003 98.5059 17.3516ZM96.2598 33.3184C94.6647 33.1068 93.208 32.8382 91.8896 32.5127C91.2549 32.9847 90.7585 33.4079 90.4004 33.7822C90.0586 34.1729 89.7982 34.5146 89.6191 34.8076C89.4401 35.1169 89.3262 35.4017 89.2773 35.6621C89.2448 35.9225 89.2285 36.1667 89.2285 36.3945C89.2285 36.8991 89.4157 37.3792 89.79 37.835C90.1644 38.2907 90.6852 38.6895 91.3525 39.0312C92.0361 39.3893 92.8418 39.666 93.7695 39.8613C94.7135 40.0729 95.7389 40.1787 96.8457 40.1787C97.7572 40.1787 98.5303 40.0648 99.165 39.8369C99.8161 39.6253 100.345 39.3324 100.752 38.958C101.159 38.5999 101.452 38.1849 101.631 37.7129C101.826 37.2572 101.924 36.7933 101.924 36.3213C101.924 36.0609 101.859 35.7842 101.729 35.4912C101.598 35.2145 101.33 34.9378 100.923 34.6611C100.532 34.4007 99.9626 34.1484 99.2139 33.9043C98.4814 33.6764 97.4967 33.4811 96.2598 33.3184ZM104.854 16.3506C104.854 17.6038 104.577 18.7513 104.023 19.793C103.486 20.8184 102.746 21.7054 101.802 22.4541C100.874 23.1865 99.7835 23.7643 98.5303 24.1875C97.2933 24.5944 95.9749 24.7979 94.5752 24.7979H94.2822C93.7126 25.3512 93.3626 25.7907 93.2324 26.1162C93.1022 26.4255 93.0371 26.6289 93.0371 26.7266C93.0371 26.8568 93.0697 26.987 93.1348 27.1172C93.2161 27.2311 93.4277 27.3532 93.7695 27.4834C94.1113 27.6136 94.6322 27.752 95.332 27.8984C96.0482 28.0286 97.041 28.1751 98.3105 28.3379C100.264 28.5983 101.883 28.8994 103.169 29.2412C104.455 29.5667 105.472 29.9736 106.221 30.4619C106.986 30.9339 107.515 31.4954 107.808 32.1465C108.117 32.7975 108.271 33.5625 108.271 34.4414C108.271 35.1738 108.092 35.9144 107.734 36.6631C107.376 37.4118 106.888 38.1361 106.27 38.8359C105.651 39.5521 104.919 40.2194 104.072 40.8379C103.226 41.4564 102.306 41.9935 101.313 42.4492C100.337 42.9212 99.3115 43.2874 98.2373 43.5479C97.1631 43.8245 96.0889 43.9629 95.0146 43.9629C94.1357 43.9629 93.2161 43.9059 92.2559 43.792C91.3118 43.6943 90.376 43.5316 89.4482 43.3037C88.5368 43.0758 87.666 42.7829 86.8359 42.4248C86.0221 42.083 85.2979 41.6598 84.6631 41.1553C84.0446 40.667 83.5482 40.1055 83.1738 39.4707C82.8158 38.8522 82.6367 38.1442 82.6367 37.3467C82.6367 36.9561 82.7262 36.5573 82.9053 36.1504C83.0843 35.7435 83.3936 35.304 83.833 34.832C84.2887 34.3763 84.8991 33.8799 85.6641 33.3428C86.4453 32.8057 87.43 32.2035 88.6182 31.5361C87.723 31.1781 87.0394 30.8037 86.5674 30.4131C86.0954 30.0225 85.8594 29.6318 85.8594 29.2412C85.8594 28.8506 86.2337 28.2158 86.9824 27.3369C87.7311 26.4417 88.9355 25.4245 90.5957 24.2852C89.668 24.0247 88.8135 23.6829 88.0322 23.2598C87.2673 22.8203 86.6081 22.3076 86.0547 21.7217C85.5176 21.1195 85.0944 20.4521 84.7852 19.7197C84.4922 18.971 84.3457 18.1654 84.3457 17.3027C84.3457 16.1146 84.6468 14.9915 85.249 13.9336C85.8512 12.8594 86.6569 11.9316 87.666 11.1504C88.6751 10.3529 89.847 9.72624 91.1816 9.27051C92.5326 8.7985 93.9567 8.5625 95.4541 8.5625C96.6423 8.5625 97.7409 8.72526 98.75 9.05078C99.7754 9.36003 100.695 9.79134 101.509 10.3447C102.16 10.2471 102.803 10.125 103.438 9.97852C104.072 9.81576 104.674 9.65299 105.244 9.49023C105.814 9.3112 106.335 9.14844 106.807 9.00195C107.279 8.83919 107.677 8.69271 108.003 8.5625L108.735 9.53906C108.703 9.70182 108.63 9.91341 108.516 10.1738C108.418 10.418 108.304 10.6784 108.174 10.9551C108.044 11.2318 107.905 11.5085 107.759 11.7852C107.612 12.0456 107.474 12.2734 107.344 12.4688C106.807 12.5501 106.261 12.6315 105.708 12.7129C105.155 12.778 104.544 12.8268 103.877 12.8594C104.528 13.9336 104.854 15.0973 104.854 16.3506Z" fill="black"/>
<path d="M126.948 21.3799C126.948 20.0941 126.834 18.8734 126.606 17.7178C126.395 16.5459 126.077 15.5205 125.654 14.6416C125.231 13.7464 124.694 13.0384 124.043 12.5176C123.408 11.9967 122.676 11.7363 121.846 11.7363C120.918 11.7363 120.153 11.9561 119.551 12.3955C118.949 12.835 118.468 13.4453 118.11 14.2266C117.769 15.0078 117.524 15.9355 117.378 17.0098C117.248 18.0677 117.183 19.2152 117.183 20.4521C117.183 21.738 117.305 22.9342 117.549 24.041C117.809 25.1478 118.159 26.1162 118.599 26.9463C119.054 27.7601 119.591 28.403 120.21 28.875C120.845 29.3307 121.536 29.5586 122.285 29.5586C123.197 29.5586 123.953 29.3877 124.556 29.0459C125.158 28.6878 125.63 28.167 125.972 27.4834C126.33 26.7835 126.582 25.929 126.729 24.9199C126.875 23.8945 126.948 22.7145 126.948 21.3799ZM133.906 20.1592C133.906 21.2497 133.752 22.3158 133.442 23.3574C133.149 24.3991 132.734 25.3838 132.197 26.3115C131.66 27.2393 131.009 28.1019 130.244 28.8994C129.495 29.6807 128.665 30.3561 127.754 30.9258C126.842 31.4954 125.866 31.9349 124.824 32.2441C123.783 32.5697 122.708 32.7324 121.602 32.7324C119.876 32.7324 118.314 32.4395 116.914 31.8535C115.514 31.2676 114.318 30.4619 113.325 29.4365C112.332 28.4111 111.567 27.1904 111.03 25.7744C110.493 24.3584 110.225 22.8203 110.225 21.1602C110.225 20.0859 110.355 19.028 110.615 17.9863C110.892 16.9447 111.283 15.96 111.787 15.0322C112.292 14.0882 112.91 13.2256 113.643 12.4443C114.375 11.6468 115.197 10.9632 116.108 10.3936C117.02 9.82389 118.013 9.3763 119.087 9.05078C120.177 8.72526 121.333 8.5625 122.554 8.5625C124.263 8.5625 125.817 8.85547 127.217 9.44141C128.617 10.0273 129.813 10.8411 130.806 11.8828C131.799 12.9082 132.563 14.1289 133.101 15.5449C133.638 16.9609 133.906 18.499 133.906 20.1592Z" fill="black"/>
</svg>
