<svg width="115" height="36" viewBox="0 0 115 36" fill="none" xmlns="http://www.w3.org/2000/svg">
<path d="M0.507812 0.0799866C0.627813 0.0799866 0.981146 0.0799866 1.56781 0.0799866C2.15448 0.0799866 2.84781 0.0799866 3.64781 0.0799866C4.46115 0.0799866 5.28115 0.0866536 6.10781 0.0999875C6.94781 0.0999875 7.67448 0.106654 8.28781 0.119986C11.8078 0.186654 14.6678 0.793321 16.8678 1.93999C19.0811 3.07332 20.7011 4.69332 21.7278 6.79999C22.7678 8.89332 23.2878 11.42 23.2878 14.38C23.2878 17.4733 22.7345 20.1067 21.6278 22.28C20.5345 24.4533 18.8545 26.12 16.5878 27.28C14.3345 28.4267 11.4678 29 7.98781 29H0.507812V0.0799866ZM5.44781 4.09999V24.98H8.06781C10.0545 24.98 11.8078 24.64 13.3278 23.96C14.8478 23.2667 16.0345 22.1467 16.8878 20.6C17.7545 19.0533 18.1878 16.9867 18.1878 14.4C18.1878 11.8933 17.7878 9.88665 16.9878 8.37999C16.1878 6.87332 15.0411 5.78665 13.5478 5.11999C12.0545 4.43999 10.2678 4.09999 8.18781 4.09999H5.44781Z" fill="black"/>
<path d="M30.7681 35.6C29.4481 35.6 28.5215 35.4933 27.9881 35.28C27.4681 35.08 27.2081 34.98 27.2081 34.98V31.86L29.2881 31.92C30.1281 31.96 30.8081 31.9133 31.3281 31.78C31.8615 31.6467 32.2748 31.46 32.5681 31.22C32.8615 30.9933 33.0748 30.7467 33.2081 30.48C33.3548 30.2267 33.4681 30.0067 33.5481 29.82L34.0881 28.3L26.0281 8.31999H30.8881L36.3681 22.94L41.8481 8.31999H46.6081L38.0881 29.76C37.4481 31.32 36.7548 32.52 36.0081 33.36C35.2748 34.2133 34.4681 34.8 33.5881 35.12C32.7215 35.44 31.7815 35.6 30.7681 35.6Z" fill="black"/>
<path d="M53.1191 19.78C53.1057 20.9533 53.2924 21.9933 53.6791 22.9C54.0657 23.8067 54.6391 24.52 55.3991 25.04C56.1591 25.5467 57.0991 25.8 58.2191 25.8C59.3657 25.8 60.3591 25.5467 61.1991 25.04C62.0524 24.52 62.6191 23.7333 62.8991 22.68H67.3591C67.1191 24.12 66.5457 25.34 65.6391 26.34C64.7324 27.34 63.6324 28.1 62.3391 28.62C61.0591 29.14 59.7257 29.4 58.3391 29.4C56.3391 29.4 54.5791 28.98 53.0591 28.14C51.5524 27.2867 50.3724 26.0733 49.5191 24.5C48.6791 22.9267 48.2591 21.0533 48.2591 18.88C48.2591 16.76 48.6457 14.88 49.4191 13.24C50.1924 11.5867 51.3057 10.2867 52.7591 9.33999C54.2257 8.39332 55.9857 7.91999 58.0391 7.91999C60.0791 7.91999 61.7924 8.35332 63.1791 9.21999C64.5791 10.0867 65.6324 11.3 66.3391 12.86C67.0591 14.4067 67.4191 16.22 67.4191 18.3V19.78H53.1191ZM53.1191 16.76H62.8191C62.8191 15.76 62.6457 14.86 62.2991 14.06C61.9524 13.2467 61.4191 12.6067 60.6991 12.14C59.9924 11.66 59.0991 11.42 58.0191 11.42C56.9524 11.42 56.0524 11.68 55.3191 12.2C54.5857 12.72 54.0324 13.3933 53.6591 14.22C53.2857 15.0333 53.1057 15.88 53.1191 16.76Z" fill="black"/>
<path d="M80.94 35.84C77.46 35.84 74.7867 35.3733 72.92 34.44C71.0533 33.5067 70.12 32.2267 70.12 30.6C70.12 29.8667 70.3 29.2533 70.66 28.76C71.02 28.2667 71.4467 27.86 71.94 27.54C72.4333 27.22 72.8867 26.9733 73.3 26.8C73.7133 26.6267 73.98 26.5 74.1 26.42C73.8733 26.2867 73.5733 26.1133 73.2 25.9C72.8267 25.6867 72.4867 25.3933 72.18 25.02C71.8867 24.6467 71.74 24.16 71.74 23.56C71.74 22.8667 72.0667 22.2267 72.72 21.64C73.3867 21.0533 74.38 20.6333 75.7 20.38C74.4067 19.7533 73.4133 18.9067 72.72 17.84C72.0267 16.7733 71.68 15.6667 71.68 14.52C71.68 13.16 72.0733 11.9933 72.86 11.02C73.66 10.0467 74.7667 9.29999 76.18 8.77999C77.6067 8.25999 79.2533 7.99999 81.12 7.99999C82.5067 7.99999 83.6533 8.15332 84.56 8.45999C85.4667 8.76665 86.3133 9.17999 87.1 9.69999C87.3667 9.59332 87.74 9.44665 88.22 9.25999C88.7133 9.05999 89.2467 8.84665 89.82 8.61999C90.3933 8.37999 90.94 8.15332 91.46 7.93999C91.9933 7.71332 92.4467 7.52665 92.82 7.37999L92.78 11.4L89.2 12.04C89.3733 12.4267 89.5067 12.8467 89.6 13.3C89.7067 13.7533 89.76 14.1533 89.76 14.5C89.76 15.7 89.42 16.8133 88.74 17.84C88.0733 18.8533 87.0667 19.6667 85.72 20.28C84.3867 20.8933 82.72 21.2 80.72 21.2C80.52 21.2 80.2467 21.1933 79.9 21.18C79.5533 21.1667 79.2733 21.1533 79.06 21.14C77.98 21.18 77.24 21.3067 76.84 21.52C76.44 21.7333 76.24 21.9667 76.24 22.22C76.24 22.58 76.54 22.82 77.14 22.94C77.74 23.06 78.7 23.1667 80.02 23.26C80.4867 23.2867 81.1 23.32 81.86 23.36C82.62 23.4 83.4667 23.4533 84.4 23.52C86.76 23.6667 88.5467 24.26 89.76 25.3C90.9733 26.3267 91.58 27.66 91.58 29.3C91.58 31.2067 90.7 32.7733 88.94 34C87.18 35.2267 84.5133 35.84 80.94 35.84ZM81.76 32.98C83.5067 32.98 84.8 32.74 85.64 32.26C86.48 31.78 86.9 31.0733 86.9 30.14C86.9 29.42 86.6133 28.8333 86.04 28.38C85.4667 27.9267 84.6133 27.66 83.48 27.58L78.26 27.26C77.6867 27.22 77.14 27.3267 76.62 27.58C76.1133 27.82 75.7 28.16 75.38 28.6C75.06 29.0267 74.9 29.5 74.9 30.02C74.9 30.9933 75.46 31.7267 76.58 32.22C77.7 32.7267 79.4267 32.98 81.76 32.98ZM80.88 18.34C82.1467 18.34 83.1733 18.02 83.96 17.38C84.7467 16.7267 85.14 15.8067 85.14 14.62C85.14 13.3933 84.7467 12.44 83.96 11.76C83.1733 11.0667 82.1467 10.72 80.88 10.72C79.5867 10.72 78.54 11.0667 77.74 11.76C76.9533 12.4533 76.56 13.4067 76.56 14.62C76.56 15.7667 76.94 16.6733 77.7 17.34C78.46 18.0067 79.52 18.34 80.88 18.34Z" fill="black"/>
<path d="M104.715 29.4C102.742 29.4 101.022 28.98 99.555 28.14C98.0883 27.2867 96.9483 26.0667 96.135 24.48C95.335 22.8933 94.935 20.9867 94.935 18.76C94.935 16.6 95.3217 14.7067 96.095 13.08C96.8817 11.4533 98.0083 10.1867 99.475 9.27999C100.942 8.37332 102.695 7.91999 104.735 7.91999C106.708 7.91999 108.422 8.35332 109.875 9.21999C111.328 10.0867 112.448 11.3267 113.235 12.94C114.035 14.5533 114.435 16.4933 114.435 18.76C114.435 20.8533 114.055 22.7 113.295 24.3C112.548 25.8867 111.448 27.1333 109.995 28.04C108.555 28.9467 106.795 29.4 104.715 29.4ZM104.735 25.7C105.855 25.7 106.775 25.3933 107.495 24.78C108.228 24.1667 108.768 23.3267 109.115 22.26C109.475 21.1933 109.655 19.98 109.655 18.62C109.655 17.3533 109.495 16.1867 109.175 15.12C108.868 14.0533 108.348 13.2 107.615 12.56C106.895 11.9067 105.935 11.58 104.735 11.58C103.602 11.58 102.662 11.88 101.915 12.48C101.182 13.0667 100.628 13.8933 100.255 14.96C99.895 16.0133 99.715 17.2333 99.715 18.62C99.715 19.8733 99.875 21.04 100.195 22.12C100.528 23.1867 101.062 24.0533 101.795 24.72C102.528 25.3733 103.508 25.7 104.735 25.7Z" fill="black"/>
</svg>
